<?xml version="1.0" encoding="UTF-8"?>
<!DOCTYPE svg PUBLIC "-//W3C//DTD SVG 1.1//EN" "http://www.w3.org/Graphics/SVG/1.1/DTD/svg11.dtd">
<!-- Creator: CorelDRAW X7.4 EN Portable -->
<svg xmlns="http://www.w3.org/2000/svg" xml:space="preserve" width="8.5in" height="11in" version="1.1" style="shape-rendering:geometricPrecision; text-rendering:geometricPrecision; image-rendering:optimizeQuality; fill-rule:evenodd; clip-rule:evenodd"
viewBox="0 0 8500 11000"
 xmlns:xlink="http://www.w3.org/1999/xlink">
 <defs>
  <style type="text/css">
   <![CDATA[
    .fil0 {fill:black}
   ]]>
  </style>
 </defs>
 <g id="Layer_x0020_1">
  <metadata id="CorelCorpID_0Corel-Layer"/>
  <path class="fil0" d="M3988 1080c486,-136 1008,123 1260,539 175,353 206,794 -7,1137 -253,493 -909,710 -1414,496 -321,-131 -602,-407 -674,-754 -199,-598 221,-1303 835,-1418z"/>
  <path class="fil0" d="M2921 3927c821,-64 1646,-15 2468,-31 314,-2 577,209 760,448 190,635 56,1321 90,1974 70,512 -345,972 -843,1015 -31,816 23,1634 -29,2450 -93,274 -401,446 -690,375 -491,-60 -1309,248 -1546,-375 -52,-815 3,-1633 -29,-2448 -363,-69 -756,-293 -816,-685 -56,-584 -26,-1172 -26,-1757 -53,-419 233,-893 661,-966z"/>
 </g>
</svg>
