<?xml version="1.0" encoding="UTF-8"?>
<!DOCTYPE svg PUBLIC "-//W3C//DTD SVG 1.1//EN" "http://www.w3.org/Graphics/SVG/1.1/DTD/svg11.dtd">
<!-- Creator: CorelDRAW X7.4 EN Portable -->
<svg xmlns="http://www.w3.org/2000/svg" xml:space="preserve" width="8.5in" height="11in" version="1.1" style="shape-rendering:geometricPrecision; text-rendering:geometricPrecision; image-rendering:optimizeQuality; fill-rule:evenodd; clip-rule:evenodd"
viewBox="0 0 8500 11000"
 xmlns:xlink="http://www.w3.org/1999/xlink">
 <defs>
  <style type="text/css">
   <![CDATA[
    .fil0 {fill:black}
   ]]>
  </style>
 </defs>
 <g id="Layer_x0020_1">
  <metadata id="CorelCorpID_0Corel-Layer"/>
  <g id="_544247216">
   <path class="fil0" d="M4004 1104c461,-130 957,117 1198,513 166,334 194,754 -7,1079 -240,470 -864,675 -1345,472 -305,-126 -572,-386 -641,-717 -188,-567 210,-1239 795,-1347z"/>
   <path class="fil0" d="M3800 3809c503,-80 1144,-110 1440,398 367,960 767,1908 1135,2866 104,218 -13,426 -119,608 -344,249 -790,126 -1191,163 -9,472 7,944 -2,1416 -17,316 -366,552 -676,472 -312,33 -771,46 -905,-314 -91,-515 -15,-1052 -46,-1576 -387,-46 -976,143 -1238,-252 -143,-199 -111,-463 -13,-675 281,-689 552,-1380 829,-2071 169,-394 295,-953 786,-1035z"/>
  </g>
 </g>
</svg>
